<mxfile host="65bd71144e">
    <diagram id="cbN6kBWFciiEb4tXKqpF" name="ตฺ 1 าณ">
        <mxGraphModel dx="1198" dy="810" grid="1" gridSize="10" guides="1" tooltips="1" connect="1" arrows="1" fold="1" page="1" pageScale="1" pageWidth="1169" pageHeight="827" background="light-dark(#fcfcfc, #121212)" math="0" shadow="0">
            <root>
                <mxCell id="0"/>
                <mxCell id="1" parent="0"/>
            </root>
        </mxGraphModel>
    </diagram>
</mxfile>